<svg xmlns="http://www.w3.org/2000/svg" width="208" height="316" viewBox="0 0 208 316" version="1.1"><path d="M 106.333 11.333 C 106.333 12.067, 106.926 12.667, 107.651 12.667 C 108.635 12.667, 108.689 12.330, 107.862 11.333 C 106.484 9.674, 106.333 9.674, 106.333 11.333 M 96.872 13.750 C 95.629 15.336, 95.664 15.371, 97.250 14.128 C 98.916 12.821, 99.445 12, 98.622 12 C 98.415 12, 97.627 12.787, 96.872 13.750 M 97.872 86.750 C 96.629 88.336, 96.664 88.371, 98.250 87.128 C 99.916 85.821, 100.445 85, 99.622 85 C 99.415 85, 98.627 85.787, 97.872 86.750 M 101.564 91.707 C 101.022 93.132, 101.136 93.247, 102.124 92.267 C 102.808 91.588, 103.115 90.781, 102.807 90.474 C 102.499 90.166, 101.940 90.721, 101.564 91.707 M 69.500 145.719 C 61.808 147.593, 60.152 157.828, 66.707 162.984 C 69.556 165.225, 74.673 165.588, 77.046 163.718 C 79.810 161.540, 82 157.615, 82 154.840 C 82 152.296, 81.780 152.161, 78.500 152.694 C 75.404 153.196, 75 153.012, 75 151.099 C 75 149.910, 75.738 148.654, 76.640 148.308 C 78.122 147.739, 78.104 147.549, 76.449 146.339 C 74.589 144.979, 73.089 144.845, 69.500 145.719 M 130.750 145.689 C 128.571 146.259, 128.559 146.855, 130.676 149.195 C 133.126 151.901, 131.007 153.818, 127.168 152.370 L 124.364 151.311 125.052 155.846 C 126.612 166.124, 138.243 168.388, 142.883 159.316 C 145.550 154.101, 143.657 148.590, 138.452 146.415 C 135.012 144.978, 133.880 144.871, 130.750 145.689 M 97.345 150.396 C 91.900 152.860, 92.008 157.501, 97.614 161.911 C 99.368 163.291, 101.032 163.779, 102.621 163.380 C 104.610 162.881, 105.013 163.169, 105.079 165.142 C 105.129 166.647, 105.360 166.957, 105.716 166 C 106.022 165.175, 107.787 163.089, 109.637 161.365 C 113.486 157.777, 113.996 154.211, 111.041 151.537 C 108.450 149.192, 101.320 148.598, 97.345 150.396 M 34.079 159.583 C 34.127 160.748, 34.364 160.985, 34.683 160.188 C 34.972 159.466, 34.936 158.603, 34.604 158.271 C 34.272 157.939, 34.036 158.529, 34.079 159.583 M 172.079 162.583 C 172.127 163.748, 172.364 163.985, 172.683 163.188 C 172.972 162.466, 172.936 161.603, 172.604 161.271 C 172.272 160.939, 172.036 161.529, 172.079 162.583 M 33.079 167.583 C 33.127 168.748, 33.364 168.985, 33.683 168.188 C 33.972 167.466, 33.936 166.603, 33.604 166.271 C 33.272 165.939, 33.036 166.529, 33.079 167.583 M 115 169.393 C 115 169.609, 115.698 170.054, 116.552 170.382 C 117.442 170.723, 117.843 170.555, 117.493 169.989 C 116.906 169.038, 115 168.583, 115 169.393 M 173.079 170.583 C 173.127 171.748, 173.364 171.985, 173.683 171.188 C 173.972 170.466, 173.936 169.603, 173.604 169.271 C 173.272 168.939, 173.036 169.529, 173.079 170.583 M 32.079 176.583 C 32.127 177.748, 32.364 177.985, 32.683 177.188 C 32.972 176.466, 32.936 175.603, 32.604 175.271 C 32.272 174.939, 32.036 175.529, 32.079 176.583 M 174.158 179 C 174.158 180.375, 174.385 180.938, 174.662 180.250 C 174.940 179.563, 174.940 178.438, 174.662 177.750 C 174.385 177.063, 174.158 177.625, 174.158 179 M 31.079 185.583 C 31.127 186.748, 31.364 186.985, 31.683 186.188 C 31.972 185.466, 31.936 184.603, 31.604 184.271 C 31.272 183.939, 31.036 184.529, 31.079 185.583 M 175.158 190 C 175.158 191.375, 175.385 191.938, 175.662 191.250 C 175.940 190.563, 175.940 189.438, 175.662 188.750 C 175.385 188.063, 175.158 188.625, 175.158 190 M 64.813 190.683 C 65.534 190.972, 66.397 190.936, 66.729 190.604 C 67.061 190.272, 66.471 190.036, 65.417 190.079 C 64.252 190.127, 64.015 190.364, 64.813 190.683 M 140.813 190.683 C 141.534 190.972, 142.397 190.936, 142.729 190.604 C 143.061 190.272, 142.471 190.036, 141.417 190.079 C 140.252 190.127, 140.015 190.364, 140.813 190.683 M 59 192.941 C 59 194.009, 59.385 195.120, 59.856 195.411 C 60.326 195.702, 60.499 194.828, 60.239 193.470 C 59.675 190.519, 59 190.231, 59 192.941 M 81.813 192.683 C 82.534 192.972, 83.397 192.936, 83.729 192.604 C 84.061 192.272, 83.471 192.036, 82.417 192.079 C 81.252 192.127, 81.015 192.364, 81.813 192.683 M 90.762 193.707 C 92.006 193.946, 93.806 193.937, 94.762 193.687 C 95.718 193.437, 94.700 193.241, 92.500 193.252 C 90.300 193.263, 89.518 193.468, 90.762 193.707 M 112.762 193.707 C 114.006 193.946, 115.806 193.937, 116.762 193.687 C 117.718 193.437, 116.700 193.241, 114.500 193.252 C 112.300 193.263, 111.518 193.468, 112.762 193.707 M 141.437 199.250 L 138.500 202.500 141.750 199.563 C 144.779 196.825, 145.460 196, 144.687 196 C 144.515 196, 143.052 197.463, 141.437 199.250 M 30.252 200.500 C 30.263 202.700, 30.468 203.482, 30.707 202.238 C 30.946 200.994, 30.937 199.194, 30.687 198.238 C 30.437 197.282, 30.241 198.300, 30.252 200.500 M 63 197.378 C 63 197.585, 63.788 198.373, 64.750 199.128 C 66.336 200.371, 66.371 200.336, 65.128 198.750 C 63.821 197.084, 63 196.555, 63 197.378 M 176.336 211 C 176.336 215.125, 176.513 216.813, 176.728 214.750 C 176.944 212.688, 176.944 209.313, 176.728 207.250 C 176.513 205.188, 176.336 206.875, 176.336 211 M 73 210.378 C 73 210.585, 73.787 211.373, 74.750 212.128 C 76.336 213.371, 76.371 213.336, 75.128 211.750 C 73.821 210.084, 73 209.555, 73 210.378 M 30.232 221 C 30.232 222.925, 30.438 223.713, 30.689 222.750 C 30.941 221.787, 30.941 220.213, 30.689 219.250 C 30.438 218.287, 30.232 219.075, 30.232 221 M 74.649 218.759 C 73.943 219.901, 79.455 225.682, 80.817 225.228 C 82.769 224.577, 82.154 221.221, 79.777 219.557 C 77.366 217.867, 75.390 217.560, 74.649 218.759 M 125.528 220.850 C 123.767 223.185, 123.764 223.354, 125.455 224.590 C 126.987 225.711, 127.548 225.503, 129.613 223.048 C 130.926 221.488, 132 219.719, 132 219.117 C 132 217.129, 127.407 218.360, 125.528 220.850 M 71.423 224.125 C 70.970 224.857, 71.783 226.212, 73.492 227.575 C 76.350 229.854, 79 229.825, 79 227.515 C 79 224.849, 72.714 222.036, 71.423 224.125 M 130.223 224.557 C 127.659 226.353, 127.267 229, 129.566 229 C 132.303 229, 135 226.997, 135 224.965 C 135 222.599, 133.233 222.448, 130.223 224.557 M 66.420 229.129 C 65.240 231.039, 69.089 234.013, 71.890 233.355 C 75.260 232.563, 76.691 231.267, 75.450 230.130 C 73.971 228.776, 67.109 228.015, 66.420 229.129 M 135 228.882 C 130.666 229.647, 130.381 232.057, 134.494 233.157 C 136.819 233.779, 137.906 233.538, 139.365 232.080 C 141.053 230.391, 140.939 227.799, 139.191 228.132 C 138.811 228.204, 136.925 228.542, 135 228.882 M 175.079 229.583 C 175.127 230.748, 175.364 230.985, 175.683 230.188 C 175.972 229.466, 175.936 228.603, 175.604 228.271 C 175.272 227.939, 175.036 228.529, 175.079 229.583 M 31.079 232.583 C 31.127 233.748, 31.364 233.985, 31.683 233.188 C 31.972 232.466, 31.936 231.603, 31.604 231.271 C 31.272 230.939, 31.036 231.529, 31.079 232.583 M 63.300 240 C 63.300 243.025, 63.487 244.262, 63.716 242.750 C 63.945 241.238, 63.945 238.762, 63.716 237.250 C 63.487 235.738, 63.300 236.975, 63.300 240 M 147.437 290.250 L 144.500 293.500 147.750 290.563 C 149.537 288.948, 151 287.485, 151 287.313 C 151 286.540, 150.175 287.221, 147.437 290.250 M 62.500 294 C 63.495 295.100, 64.535 296, 64.810 296 C 65.085 296, 64.495 295.100, 63.500 294 C 62.505 292.900, 61.465 292, 61.190 292 C 60.915 292, 61.505 292.900, 62.500 294 M 137.872 298.750 C 136.629 300.336, 136.664 300.371, 138.250 299.128 C 139.213 298.373, 140 297.585, 140 297.378 C 140 296.555, 139.179 297.084, 137.872 298.750 M 116.405 304.250 L 114.500 306.500 116.750 304.595 C 118.864 302.805, 119.455 302, 118.655 302 C 118.465 302, 117.453 303.012, 116.405 304.250" stroke="none" fill="#c97183" fill-rule="evenodd"/><path d="M 103.382 81.445 C 102.248 82.239, 99.605 85.378, 97.510 88.420 C 94.416 92.913, 92.501 94.513, 87.312 96.941 C 83.798 98.585, 79.003 101.310, 76.656 102.996 C 72.482 105.993, 72.307 106.026, 68.726 104.530 C 61.840 101.653, 53.519 103.449, 48.616 108.870 C 47.580 110.016, 46.348 110.715, 45.878 110.424 C 45.408 110.134, 45.291 110.594, 45.618 111.448 C 45.946 112.302, 45.801 113, 45.296 113 C 44.059 113, 41.662 122.624, 41.824 126.941 C 41.897 128.878, 43.304 132.579, 45.014 135.329 C 47.796 139.805, 47.969 140.562, 46.931 143.710 C 46.303 145.613, 45.774 149.944, 45.756 153.335 C 45.734 157.419, 45.058 160.824, 43.753 163.423 C 39.827 171.242, 44.352 182.145, 53.498 186.901 C 56.247 188.330, 58.639 189.812, 58.813 190.194 C 58.987 190.575, 59.709 190.665, 60.419 190.393 C 61.128 190.121, 66.161 190.387, 71.604 190.986 C 103.686 194.512, 103.591 194.512, 135.251 190.999 C 151.383 189.209, 153.697 188.387, 158.729 182.656 C 163.429 177.303, 165.401 171.203, 164.052 166.192 C 163.443 163.933, 162.508 161.814, 161.973 161.483 C 161.438 161.153, 161 158.055, 161 154.600 C 161 151.145, 160.376 146.245, 159.614 143.711 C 158.345 139.496, 158.382 138.965, 160.043 137.461 C 162.637 135.113, 165.306 129.064, 165.212 125.746 C 165.168 124.187, 164.334 120.569, 163.359 117.706 C 162.384 114.843, 161.691 112.129, 161.818 111.676 C 161.945 111.222, 161.638 111.106, 161.134 111.417 C 160.631 111.728, 159.459 110.824, 158.531 109.408 C 156.420 106.185, 149.673 103.051, 144.784 103.022 C 142.740 103.010, 139.451 103.771, 137.475 104.713 C 135.067 105.862, 133.654 106.079, 133.191 105.373 C 131.893 103.393, 119.116 96.292, 114.553 95.015 C 112.049 94.314, 110 93.349, 110 92.870 C 110 92.392, 110.364 92, 110.809 92 C 112.814 92, 115.071 89.347, 114.447 87.724 C 113.491 85.232, 111.840 85.570, 106.100 89.432 C 103.295 91.320, 101 92.660, 101 92.410 C 101 92.160, 102.851 89.947, 105.113 87.493 C 110.461 81.691, 109.221 77.355, 103.382 81.445 M 83.732 144.073 C 79.053 146.488, 77.578 146.844, 75.923 145.959 C 73.451 144.636, 68.201 145.607, 65.635 147.861 C 59.231 153.489, 63.795 165.056, 72.385 164.968 C 77.457 164.916, 82 159.937, 82 154.429 C 82 151.754, 82.572 151.046, 85.970 149.513 C 91.482 147.028, 93.663 144.504, 92.016 142.519 C 90.407 140.581, 90.550 140.554, 83.732 144.073 M 115.250 141.662 C 112.348 142.833, 114.139 145.887, 119.500 148.913 C 124.559 151.768, 125 152.303, 125 155.585 C 125 162.944, 134.110 167.702, 139.633 163.228 C 144.040 159.658, 145.336 153.353, 142.497 149.299 C 140.370 146.262, 134.703 144.559, 131.010 145.847 C 128.519 146.715, 127.285 146.431, 122.789 143.952 C 117.204 140.873, 117.205 140.873, 115.250 141.662 M 97.345 150.396 C 91.717 152.942, 92.248 158.496, 98.514 162.601 C 101.705 164.692, 101.683 167.506, 98.459 169.619 C 96.361 170.994, 95.461 171.076, 93.297 170.090 C 91.122 169.098, 90.406 169.170, 89.088 170.512 C 87.635 171.991, 87.701 172.294, 89.861 174.065 C 92.686 176.381, 97.731 176.577, 100.716 174.487 C 102.657 173.127, 103.237 173.145, 106.426 174.666 C 110.810 176.757, 117.266 175.612, 117.833 172.644 C 118.379 169.785, 116.675 168.736, 113.693 170.094 C 111.541 171.075, 110.636 170.991, 108.541 169.619 C 105.097 167.362, 105.345 165.242, 109.500 161.436 C 113.490 157.782, 114.039 154.250, 111.041 151.537 C 108.450 149.192, 101.320 148.598, 97.345 150.396 M 31.079 188.583 C 31.127 189.748, 31.364 189.985, 31.683 189.188 C 31.972 188.466, 31.936 187.603, 31.604 187.271 C 31.272 186.939, 31.036 187.529, 31.079 188.583 M 45.475 192.060 C 39.369 193.837, 34 202.028, 34 209.566 C 34 213.827, 37.131 220.961, 40.129 223.534 C 45.482 228.127, 60.641 234, 67.142 234 C 69.255 234, 69.264 233.949, 67.479 231.976 C 64.911 229.139, 66.598 227.983, 71.877 228.964 L 76.254 229.778 73.377 227.464 C 71.175 225.693, 70.774 224.870, 71.665 223.959 C 72.565 223.040, 73.533 223.120, 75.915 224.308 C 79.633 226.163, 79.896 225.190, 76.531 222.029 C 73.828 219.490, 74.134 217.540, 77.113 218.319 C 78.151 218.591, 79 218.588, 79 218.313 C 79 218.038, 75.816 213.577, 71.925 208.400 C 64.473 198.486, 60.744 195.044, 54.728 192.531 C 50.661 190.832, 49.842 190.790, 45.475 192.060 M 151.250 192.491 C 149.463 193.268, 148 193.727, 148 193.512 C 148 192.577, 137.882 204.094, 133.163 210.399 C 127.470 218.006, 127.047 219.062, 130 218.290 C 131.326 217.943, 132 218.259, 132 219.228 C 132 220.032, 131.100 221.505, 130 222.500 C 127.290 224.953, 127.456 226.494, 130.223 224.557 C 133.234 222.447, 135 222.599, 135 224.968 C 135 226.076, 133.798 227.607, 132.250 228.471 L 129.500 230.006 132.250 229.503 C 133.762 229.226, 136.097 228.773, 137.439 228.496 C 140.638 227.836, 141.646 229.629, 139.443 232.063 C 137.760 233.922, 137.777 234, 139.858 234 C 144.374 234, 156.280 229.974, 161.950 226.531 C 166.627 223.689, 168.380 221.879, 170.423 217.778 C 173.417 211.770, 173.593 209.095, 171.411 202.692 C 169.589 197.345, 165.583 193.534, 160.219 192.044 C 155.562 190.751, 155.214 190.768, 151.250 192.491 M 175.079 193.583 C 175.127 194.748, 175.364 194.985, 175.683 194.188 C 175.972 193.466, 175.936 192.603, 175.604 192.271 C 175.272 191.939, 175.036 192.529, 175.079 193.583 M 30.336 211 C 30.336 215.125, 30.513 216.813, 30.728 214.750 C 30.944 212.688, 30.944 209.313, 30.728 207.250 C 30.513 205.188, 30.336 206.875, 30.336 211 M 143.272 240 C 143.272 242.475, 143.467 243.488, 143.706 242.250 C 143.944 241.012, 143.944 238.988, 143.706 237.750 C 143.467 236.512, 143.272 237.525, 143.272 240 M 151.872 284.750 C 150.629 286.336, 150.664 286.371, 152.250 285.128 C 153.213 284.373, 154 283.585, 154 283.378 C 154 282.555, 153.179 283.084, 151.872 284.750 M 58.500 290 C 59.495 291.100, 60.535 292, 60.810 292 C 61.085 292, 60.495 291.100, 59.500 290 C 58.505 288.900, 57.465 288, 57.190 288 C 56.915 288, 57.505 288.900, 58.500 290 M 140.872 295.750 C 139.629 297.336, 139.664 297.371, 141.250 296.128 C 142.213 295.373, 143 294.585, 143 294.378 C 143 293.555, 142.179 294.084, 140.872 295.750 M 157.898 295.096 C 154.313 297.396, 140.598 302.026, 134.469 303.005 C 130.724 303.603, 127.325 304.299, 126.917 304.551 C 126.509 304.803, 126.492 306.245, 126.879 307.755 C 127.364 309.647, 128.968 311.224, 132.042 312.831 C 136.078 314.941, 137.446 315.117, 146.500 314.688 C 157.227 314.180, 164.357 312.070, 166.052 308.903 C 167.989 305.284, 160.853 293.200, 157.898 295.096 M 44.383 297.750 C 36.257 308.960, 40.394 313.526, 59.749 314.708 C 73.025 315.518, 80 312.592, 80 306.212 C 80 304.607, 78.816 304.098, 72.750 303.096 C 68.763 302.438, 61.619 300.347, 56.876 298.450 C 52.133 296.552, 47.830 295, 47.314 295 C 46.798 295, 45.479 296.238, 44.383 297.750 M 66 296.378 C 66 296.585, 66.787 297.373, 67.750 298.128 C 69.336 299.371, 69.371 299.336, 68.128 297.750 C 66.821 296.084, 66 295.555, 66 296.378 M 84 299.500 C 85.866 301.425, 87.617 303, 87.892 303 C 88.167 303, 86.866 301.425, 85 299.500 C 83.134 297.575, 81.383 296, 81.108 296 C 80.833 296, 82.134 297.575, 84 299.500" stroke="none" fill="#dabd93" fill-rule="evenodd"/><path d="M 93.127 2.411 C 77.919 8.201, 60.458 24.922, 43.999 49.455 C 34.684 63.340, 20.388 95.645, 14.108 117 C 8.776 135.129, 2.061 171.478, 0.772 189.183 C -1.625 222.114, 3.325 251.070, 14.145 267.405 C 21.026 277.793, 32.805 287.927, 43.222 292.419 C 45.025 293.197, 48.178 294.562, 50.229 295.453 C 59.517 299.489, 74.926 304.376, 72.927 302.652 C 72.692 302.450, 69.301 299.554, 65.391 296.217 C 52.599 285.299, 41.284 268.859, 36.008 253.524 C 28.727 232.361, 28.563 194.411, 35.567 151.500 C 42.107 111.431, 55.524 76.216, 76.719 43.485 C 90.492 22.217, 101 7.799, 101 10.169 C 101 10.397, 97.608 20.452, 93.461 32.514 C 89.315 44.575, 84.832 58.747, 83.498 64.006 C 80.503 75.823, 74.956 102.290, 75.385 102.719 C 75.559 102.892, 78.305 101.466, 81.488 99.549 C 84.672 97.632, 88.723 95.587, 90.491 95.003 C 92.276 94.414, 94.206 92.844, 94.830 91.473 C 96.619 87.547, 104.071 80, 106.159 80 C 109.489 80, 109.477 82.913, 106.132 86.364 C 101.924 90.705, 102.179 91.630, 106.732 88.536 C 111.047 85.604, 113.794 85.300, 114.698 87.656 C 115.106 88.718, 114.506 89.981, 113.025 91.181 C 110.331 93.362, 110.228 93.225, 115.915 95.029 C 118.343 95.799, 122.785 97.908, 125.786 99.715 C 128.787 101.522, 131.364 103, 131.513 103 C 131.661 103, 130.984 99.288, 130.007 94.750 C 129.031 90.213, 127.025 80.875, 125.550 74 C 124.075 67.125, 119.033 50.102, 114.346 36.171 C 109.659 22.240, 106.033 10.634, 106.287 10.380 C 107.515 9.152, 132.670 46.684, 141.219 62.500 C 160.284 97.767, 169.664 131.005, 175.084 182.500 C 176.847 199.249, 176.626 225.737, 174.629 236.901 C 170.245 261.416, 159.059 281.280, 141.097 296.445 C 137.224 299.714, 134.185 302.519, 134.343 302.677 C 135.472 303.805, 157.033 295.770, 166.931 290.532 C 183.278 281.883, 194.709 268.199, 200.371 250.500 C 208.517 225.039, 208.516 192.860, 200.368 151.500 C 195.275 125.650, 193.496 118.629, 188.584 105 C 174.294 65.347, 160.067 40.997, 139.354 20.744 C 120.695 2.500, 107.077 -2.901, 93.127 2.411 M 81.750 145.563 C 76.845 148.080, 75 149.571, 75 151.014 C 75 154.006, 78.256 153.514, 85.588 149.414 C 89.988 146.953, 92 145.227, 92 143.914 C 92 141.169, 89.540 141.564, 81.750 145.563 M 114.500 143 C 113.506 144.609, 114.709 145.739, 121.390 149.476 C 127.922 153.128, 130.424 153.741, 131.527 151.956 C 132.542 150.314, 130.100 148.079, 123.838 144.918 C 117.715 141.828, 115.505 141.374, 114.500 143 M 101.667 163.667 C 101.300 164.033, 101 165.368, 101 166.631 C 101 169.755, 97.757 171.304, 92.925 170.487 C 89.440 169.899, 89 170.050, 89 171.835 C 89 173.249, 90.047 174.191, 92.533 175.011 C 95.520 175.997, 96.639 175.893, 99.783 174.338 C 103.353 172.572, 103.638 172.570, 107 174.273 C 110.695 176.145, 114.487 175.859, 116.868 173.530 C 119.108 171.340, 117.269 169.933, 113.050 170.608 C 109.970 171.101, 108.807 170.807, 107.110 169.110 C 105.950 167.950, 105 166.100, 105 165 C 105 163.073, 103.043 162.290, 101.667 163.667 M 60 192.550 C 60 193.936, 60.889 195.525, 62.066 196.242 C 63.857 197.333, 72.771 208.646, 79.768 218.710 C 82.132 222.109, 82.684 225, 80.969 225 C 80.401 225, 79.659 225.724, 79.320 226.609 C 77.748 230.704, 74.145 233.130, 68.817 233.679 L 63.483 234.230 64.141 243.865 C 65.864 269.071, 74.080 289.694, 87.042 301.348 L 92.216 306 103.190 306 L 114.163 306 118.667 302.310 C 124.828 297.261, 131.691 287.347, 135.097 278.576 C 138.618 269.508, 143 248.264, 143 240.264 L 143 234.279 137.897 233.674 C 134.188 233.235, 132.139 232.363, 130.397 230.483 C 129.079 229.061, 128 227.525, 128 227.070 C 128 226.616, 127.049 225.612, 125.886 224.841 C 123.773 223.437, 123.773 223.436, 127.112 218.469 C 133.776 208.553, 142.138 197.956, 144.541 196.381 C 146.008 195.420, 147 193.814, 147 192.400 C 147 190.104, 146.807 190.047, 140.750 190.560 C 137.313 190.851, 129.790 191.805, 124.034 192.679 C 112.921 194.368, 86.653 194.067, 78.500 192.157 C 76.300 191.641, 71.237 190.971, 67.250 190.668 C 60.085 190.123, 60 190.145, 60 192.550" stroke="none" fill="#453524" fill-rule="evenodd"/><path d="M 95.179 17.257 C 79.942 37.883, 63.728 65.060, 55.923 83.056 C 52.500 90.947, 45 111.284, 45 112.674 C 45 112.937, 46.182 111.749, 47.626 110.033 C 53 103.646, 61.313 101.433, 68.557 104.459 C 72.752 106.212, 74.443 105.736, 74.667 102.738 C 74.946 99.004, 80.930 71.092, 83.508 61.500 C 84.838 56.550, 89.082 43.388, 92.938 32.250 C 96.794 21.113, 99.750 12, 99.506 12 C 99.262 12, 97.315 14.366, 95.179 17.257 M 107 12.223 C 107 12.581, 109.902 21.241, 113.449 31.467 C 121.618 55.019, 124.158 64.112, 128.899 86.778 C 131.002 96.830, 133.015 105.349, 133.374 105.707 C 133.732 106.065, 135.610 105.603, 137.546 104.679 C 144.648 101.293, 153.164 103.334, 158.747 109.762 L 161.994 113.500 159.135 105 C 150.209 78.466, 138.825 56.776, 117.670 26 C 109.872 14.656, 107 10.947, 107 12.223 M 41.102 126.112 C 41.046 126.449, 39.911 132.074, 38.581 138.612 C 33.298 164.569, 31.530 182.577, 31.574 210 C 31.613 234.372, 31.732 235.942, 34.276 245.500 C 37.660 258.217, 45.512 273.922, 52.862 282.673 C 56.002 286.412, 62.326 292.705, 66.915 296.659 C 74.289 303.013, 75.853 303.921, 80.379 304.477 C 83.196 304.823, 86.850 305.342, 88.500 305.630 C 91.441 306.144, 91.409 306.075, 86.878 302.109 C 80.214 296.276, 73.457 285.787, 70.058 276 C 66.608 266.064, 63 247.114, 63 238.925 L 63 233.199 57.750 231.963 C 51.449 230.479, 42.097 225.811, 39.251 222.729 C 36.485 219.735, 34 213.486, 34 209.527 C 34 201.570, 39.459 193.761, 46.311 191.916 C 49.999 190.923, 51.373 191.123, 57.250 193.505 C 58.629 194.064, 58.988 193.715, 58.941 191.857 C 58.896 190.035, 57.709 188.925, 53.714 186.967 C 44.437 182.421, 39.762 171.371, 43.753 163.423 C 45.058 160.824, 45.734 157.419, 45.756 153.335 C 45.774 149.944, 46.312 145.585, 46.951 143.649 C 48.002 140.463, 47.858 139.743, 45.433 136.078 C 43.959 133.851, 42.405 130.560, 41.979 128.764 C 41.553 126.969, 41.159 125.776, 41.102 126.112 M 164.551 129.770 C 164.199 131.372, 162.651 134.191, 161.112 136.035 C 158.397 139.287, 158.353 139.523, 159.656 143.853 C 160.395 146.309, 161 151.145, 161 154.600 C 161 158.055, 161.438 161.153, 161.973 161.483 C 162.508 161.814, 163.443 163.933, 164.052 166.192 C 164.960 169.564, 164.853 171.097, 163.456 174.755 C 161.190 180.689, 156.453 185.912, 151.250 188.214 C 147.392 189.920, 146.062 191.729, 147.562 193.229 C 147.871 193.538, 149.819 193.125, 151.891 192.311 C 159.394 189.363, 168.523 194.218, 171.411 202.692 C 173.595 209.103, 173.418 211.769, 170.405 217.816 C 168.235 222.169, 166.717 223.661, 161.155 226.907 C 157.495 229.043, 152.202 231.317, 149.393 231.961 L 144.286 233.131 143.682 240.968 C 142.905 251.048, 139.557 267.444, 136.474 276.269 C 133.227 285.561, 129.012 292.270, 121.792 299.640 L 115.776 305.780 120.638 305.294 C 129.637 304.396, 132.374 303.134, 140.500 296.134 C 156.639 282.232, 167.419 265.092, 172.348 245.500 C 176.733 228.069, 176.975 201.616, 173.040 170 C 171.183 155.083, 166.468 128.135, 165.556 127.223 C 165.355 127.022, 164.902 128.168, 164.551 129.770" stroke="none" fill="#ddc1a4" fill-rule="evenodd"/></svg>