<svg xmlns="http://www.w3.org/2000/svg" width="1000" height="1000" viewBox="0 0 1000 1000" version="1.1"><path d="M 772.505 634.175 C 769.764 636.331, 769.745 636.426, 770.376 644.925 C 770.932 652.423, 770.762 653.908, 769.021 656.750 C 766.785 660.399, 764.045 660.899, 758.718 658.629 C 753.992 656.615, 751.263 653.135, 750.004 647.516 C 748.641 641.436, 746.593 639, 742.845 639 C 738.421 639, 736 642.139, 736 647.874 C 736 658.346, 740.615 665.917, 750.069 670.956 C 762.919 677.805, 774.965 675.789, 781.736 665.657 C 786.451 658.603, 787.399 654.097, 786.178 644.537 C 785.321 637.823, 784.731 636.166, 782.522 634.266 C 779.211 631.417, 776.047 631.389, 772.505 634.175" stroke="none" fill="#ffffff" fill-rule="evenodd"/><path d="M 531.476 275.500 C 531.476 317.850, 531.599 335.029, 531.750 313.676 C 531.900 292.323, 531.900 257.673, 531.750 236.676 C 531.599 215.679, 531.476 233.150, 531.476 275.500 M 558.385 214 C 558.385 220.875, 558.545 223.688, 558.740 220.250 C 558.936 216.813, 558.936 211.188, 558.740 207.750 C 558.545 204.313, 558.385 207.125, 558.385 214 M 558.470 294 C 558.470 327.275, 558.596 340.888, 558.749 324.250 C 558.903 307.613, 558.903 280.388, 558.749 263.750 C 558.596 247.113, 558.470 260.725, 558.470 294 M 586.468 296.500 C 586.468 328.400, 586.595 341.595, 586.749 325.821 C 586.904 310.048, 586.904 283.948, 586.750 267.821 C 586.595 251.695, 586.468 264.600, 586.468 296.500 M 549.458 307 C 549.458 330.375, 549.589 339.938, 549.749 328.250 C 549.909 316.563, 549.909 297.438, 549.749 285.750 C 549.589 274.063, 549.458 283.625, 549.458 307 M 576.458 309 C 576.458 332.375, 576.589 341.938, 576.749 330.250 C 576.909 318.563, 576.909 299.438, 576.749 287.750 C 576.589 276.063, 576.458 285.625, 576.458 309 M 604.458 309 C 604.458 332.375, 604.589 341.938, 604.749 330.250 C 604.909 318.563, 604.909 299.438, 604.749 287.750 C 604.589 276.063, 604.458 285.625, 604.458 309 M 414.793 566.668 C 418.608 568.549, 420.122 570.920, 421.070 576.500 C 421.728 580.370, 421.754 580.393, 421.875 577.200 C 422.086 571.632, 417.095 564.946, 412.785 565.023 C 412.078 565.035, 412.982 565.776, 414.793 566.668 M 582.163 567.848 C 578.882 570.913, 577.568 574.397, 578.281 578.148 C 578.622 579.946, 578.760 579.723, 578.864 577.200 C 579.060 572.442, 581.408 568.541, 585.198 566.673 C 587.014 565.778, 587.760 565.035, 586.856 565.023 C 585.951 565.010, 583.840 566.281, 582.163 567.848 M 330.898 581.270 C 326.355 584.305, 323.768 589.455, 324.358 594.288 C 325.233 601.463, 329.890 605.909, 337.212 606.563 L 341.500 606.945 337.120 606.002 C 331.165 604.721, 328.117 602.525, 326.318 598.220 C 323.521 591.525, 326.137 584.560, 332.761 581.062 C 334.818 579.977, 336.004 579.069, 335.398 579.044 C 334.792 579.020, 332.767 580.021, 330.898 581.270 M 667.239 581.062 C 673.863 584.560, 676.479 591.525, 673.682 598.220 C 671.883 602.525, 668.835 604.721, 662.880 606.002 L 658.500 606.945 662.788 606.563 C 676.448 605.344, 680.549 588.917, 669.102 581.270 C 667.233 580.021, 665.208 579.020, 664.602 579.044 C 663.996 579.069, 665.182 579.977, 667.239 581.062 M 418.183 584.120 C 416.909 585.692, 414.434 587.392, 412.683 587.899 C 410.165 588.627, 409.973 588.838, 411.765 588.910 C 413.927 588.996, 422.050 582.662, 420.997 581.712 C 420.723 581.465, 419.457 582.549, 418.183 584.120 M 579 581.820 C 579 583.619, 586.047 589.001, 588.285 588.910 C 589.990 588.840, 589.770 588.608, 587.333 587.903 C 585.591 587.398, 583.004 585.604, 581.583 583.916 C 580.162 582.228, 579 581.284, 579 581.820 M 487.500 582.777 C 480.313 583.275, 469.629 586.077, 464.712 588.753 C 454.256 594.444, 448.932 604.770, 450.917 615.508 C 453.179 627.746, 466.583 639.787, 485.199 646.303 C 486.470 646.748, 486.988 648.357, 487.259 652.699 L 487.622 658.500 487.811 652.716 L 488 646.931 493.250 647.654 C 499.731 648.546, 500.267 648.546, 506.699 647.661 L 511.899 646.945 512.260 652.722 L 512.622 658.500 512.811 652.719 C 512.958 648.222, 513.389 646.801, 514.750 646.323 C 533.454 639.757, 546.818 627.763, 549.083 615.508 C 551.801 600.807, 541.789 588.705, 523.460 584.537 C 517.017 583.071, 497.230 582.103, 487.500 582.777 M 469.750 673.566 C 467.137 674.926, 465 676.262, 465 676.536 C 465 676.982, 474.900 672.306, 475.917 671.380 C 477.155 670.251, 473.901 671.405, 469.750 673.566 M 524.083 671.380 C 525.103 672.309, 535 676.982, 535 676.534 C 535 675.970, 525.450 671, 524.367 671 C 523.982 671, 523.854 671.171, 524.083 671.380 M 419.125 708.173 C 419.036 710.791, 419.744 712.731, 421.589 714.923 C 423.013 716.615, 424.613 718, 425.145 718 C 425.676 718, 424.889 716.948, 423.395 715.663 C 421.559 714.084, 420.446 711.895, 419.964 708.913 L 419.250 704.500 419.125 708.173 M 580 708.577 C 580 711.197, 579.218 712.936, 577.077 715.077 C 575.469 716.685, 574.529 718, 574.988 718 C 577.036 718, 581 711.686, 581 708.423 C 581 706.540, 580.775 705, 580.500 705 C 580.225 705, 580 706.610, 580 708.577" stroke="none" fill="#c97183" fill-rule="evenodd"/><path d="M 534.972 191.750 L 531.913 194.500 531.973 273.347 C 532.014 326.953, 532.374 352.830, 533.096 354.179 C 534.702 357.180, 539.761 358.979, 543.210 357.777 C 549.141 355.709, 548.970 358.108, 549.032 276.279 C 549.063 235.101, 548.784 199.503, 548.412 197.173 C 547.166 189.384, 540.567 186.721, 534.972 191.750 M 562.834 193.750 C 561.436 195.262, 559.970 197.400, 559.574 198.500 C 558.381 201.821, 558.889 353.925, 560.102 356.190 C 562.920 361.456, 571.728 361.360, 574.483 356.033 C 576.680 351.784, 576.956 203.108, 574.776 197.960 C 571.649 190.573, 567.213 189.009, 562.834 193.750 M 589.766 193.920 L 586.500 196.839 586.874 275.670 C 587.098 323.012, 587.629 355.232, 588.203 356.331 C 589.693 359.190, 594.825 360.957, 598.210 359.777 C 603.858 357.808, 603.746 359.208, 604.031 287 C 604.409 191.227, 604.606 197.453, 601.077 193.923 C 597.343 190.189, 593.939 190.188, 589.766 193.920 M 388.054 566.579 C 372.612 568.261, 364.261 569.966, 351.479 574.046 C 337.724 578.437, 329.491 582.321, 327.501 585.358 C 323.256 591.837, 325.413 600.919, 332 604.293 C 336.660 606.681, 339.607 606.191, 357 600.140 C 370.241 595.533, 390.782 590.966, 409.440 588.479 C 418.853 587.224, 423.634 578.995, 419.544 571.085 C 416.368 564.943, 410.618 564.120, 388.054 566.579 M 585.198 566.673 C 581.251 568.618, 579 572.568, 579 577.550 C 579 582.908, 583.963 587.600, 590.560 588.479 C 609.218 590.966, 629.759 595.533, 643 600.140 C 660.393 606.191, 663.340 606.681, 668 604.293 C 674.587 600.919, 676.744 591.837, 672.499 585.358 C 670.512 582.325, 662.279 578.438, 648.590 574.068 C 635.271 569.817, 627.792 568.333, 610.585 566.526 C 592.463 564.623, 589.321 564.641, 585.198 566.673 M 487.533 657.349 L 486.826 667.736 482.926 668.904 C 480.781 669.547, 467.208 675.888, 452.763 682.995 C 430.064 694.164, 426.059 696.477, 423.250 700.037 C 416.825 708.179, 420.132 716.893, 430.219 718.406 C 436.070 719.283, 440.299 717.587, 474.876 700.502 L 500 688.088 525.124 700.502 C 559.701 717.587, 563.930 719.283, 569.781 718.406 C 579.868 716.893, 583.175 708.179, 576.750 700.037 C 573.941 696.477, 569.936 694.164, 547.237 682.995 C 532.792 675.888, 519.219 669.547, 517.074 668.904 L 513.174 667.736 512.467 657.349 L 511.759 646.963 506.629 647.670 C 503.808 648.059, 500.825 648.377, 500 648.377 C 499.175 648.377, 496.192 648.059, 493.371 647.670 L 488.241 646.963 487.533 657.349" stroke="none" fill="#2b1504" fill-rule="evenodd"/><path d="M 520.438 165.962 C 516.074 166.972, 508.036 171.528, 502.365 176.207 C 480.996 193.839, 465.259 209.765, 457.112 222 C 453.633 227.225, 450.637 231.660, 450.454 231.856 C 450.271 232.052, 442.331 233.496, 432.811 235.064 C 403.398 239.909, 382.962 245.485, 361.191 254.607 C 344.129 261.755, 343.081 261.679, 332.500 252.539 C 318.636 240.564, 304.907 232.358, 287.478 225.630 C 262.180 215.864, 235.824 213.801, 211 219.645 C 188.883 224.852, 174.035 232.898, 160.329 247.104 C 141.669 266.445, 130.787 289.800, 129.341 313.605 C 128.543 326.756, 130.147 337.407, 135.200 352.500 C 144.672 380.792, 156.885 399.111, 177.282 415.616 L 181.063 418.677 177.871 424.588 C 166.899 444.907, 149.170 487.709, 144.149 506 C 133.933 543.214, 130.656 566.131, 130.701 600.044 L 130.729 620.588 126.492 622.340 C 110.803 628.829, 88.200 650.712, 65.182 681.694 C 60.088 688.551, 49.411 711.218, 44.541 725.515 C 37.005 747.635, 36.172 780.834, 42.503 806.717 C 47.890 828.738, 52.160 839.026, 62.546 855 C 71.811 869.252, 89.765 889.561, 97.417 894.447 C 114.325 905.242, 122.343 908.743, 146.500 915.881 C 168.142 922.275, 177.777 923.956, 197 924.690 C 213.577 925.322, 225.655 924.322, 242.293 920.937 C 247.679 919.841, 256.603 918.514, 262.123 917.988 C 270.697 917.171, 272.617 917.268, 275.291 918.651 C 284.410 923.366, 303.575 928.482, 325.269 931.992 C 338.862 934.191, 391.479 938.656, 417 939.776 C 438.408 940.715, 561.607 940.715, 583 939.775 C 610.923 938.549, 662.749 934.010, 677.688 931.482 C 685.492 930.162, 695.617 928.061, 700.188 926.814 C 708.347 924.588, 709.503 924.546, 763 924.523 C 825.066 924.497, 824.024 924.596, 853.332 915.930 C 888.521 905.525, 900.882 898.819, 916.123 881.865 C 940.893 854.314, 949.821 838.097, 957.497 806.717 C 963.828 780.834, 962.995 747.635, 955.459 725.515 C 950.589 711.218, 939.912 688.551, 934.818 681.694 C 911.800 650.712, 889.197 628.829, 873.508 622.340 L 869.271 620.588 869.299 600.044 C 869.344 566.131, 866.067 543.214, 855.851 506 C 850.830 487.709, 833.101 444.907, 822.129 424.588 L 818.937 418.677 822.718 415.616 C 843.115 399.111, 855.328 380.792, 864.800 352.500 C 869.853 337.407, 871.457 326.756, 870.659 313.605 C 868.629 280.175, 846.591 245.792, 816.817 229.601 C 798.881 219.847, 773.242 214.990, 750.076 216.956 C 720.034 219.506, 691.514 231.796, 667.500 252.539 C 656.919 261.679, 655.871 261.755, 638.809 254.607 C 626.020 249.248, 605.998 242.669, 605.129 243.539 C 604.783 243.885, 604.500 268.993, 604.500 299.334 C 604.500 359.423, 604.665 357.654, 598.844 360.065 C 594.747 361.762, 590.174 360.333, 587.931 356.655 C 586.092 353.638, 586.007 350.972, 586.004 295.838 L 586 238.176 581.933 237.489 C 579.696 237.111, 577.558 237.109, 577.183 237.485 C 576.807 237.862, 576.500 264.344, 576.500 296.335 C 576.500 359.701, 576.682 357.646, 570.844 360.065 C 566.747 361.762, 562.174 360.333, 559.931 356.655 C 558.089 353.634, 558.007 350.939, 558.004 293.355 L 558 233.210 554 232.829 C 551.750 232.614, 549.920 232.896, 549.817 233.474 C 549.716 234.038, 549.604 261.050, 549.567 293.500 C 549.494 357.759, 549.681 355.647, 543.844 358.065 C 539.747 359.762, 535.174 358.333, 532.931 354.655 C 531.078 351.615, 531.007 348.733, 531.004 275.750 C 531.001 224.689, 530.666 200, 529.975 200 C 529.411 200, 525.709 201.632, 521.747 203.628 C 513.655 207.703, 514.181 206.289, 523.311 199.425 C 526.630 196.931, 531.147 192.843, 533.349 190.341 C 541.904 180.622, 538.212 168.274, 526 165.768 C 524.625 165.485, 522.122 165.573, 520.438 165.962 M 553.610 192.346 L 548.720 193.500 548.923 210.480 C 549.035 219.819, 549.293 227.626, 549.496 227.829 C 549.699 228.032, 551.696 227.889, 553.933 227.511 L 558 226.824 558.024 215.162 C 558.052 201.610, 558.963 196.733, 562.091 193.403 L 564.349 191 561.424 191.096 C 559.816 191.149, 556.299 191.711, 553.610 192.346 M 574.439 195.883 C 575.563 198.055, 576 201.841, 576 209.391 C 576 215.161, 576.416 220.139, 576.924 220.453 C 577.431 220.767, 578.841 219.627, 580.057 217.920 C 582.412 214.613, 583.650 207.725, 582.624 203.637 C 581.894 200.731, 577.630 195.407, 574.831 193.910 C 572.950 192.903, 572.936 192.975, 574.439 195.883 M 394.404 565.105 C 366.257 567.565, 332.951 577.162, 327.204 584.468 C 322.676 590.224, 323.526 598.741, 329.096 603.427 C 333.569 607.191, 338.061 607.645, 344.798 605.014 C 363.645 597.653, 385.331 592.367, 408.932 589.381 C 426.412 587.170, 426.207 565.361, 408.699 564.551 C 405.840 564.418, 399.407 564.668, 394.404 565.105 M 587.286 564.686 C 584.206 565.303, 579.248 570.166, 578.447 573.354 C 576.460 581.272, 581.958 588.230, 591.118 589.388 C 614.659 592.364, 636.369 597.658, 655.202 605.014 C 661.939 607.645, 666.431 607.191, 670.904 603.427 C 676.474 598.741, 677.324 590.224, 672.796 584.468 C 667.439 577.658, 635.769 568.131, 610 565.578 C 600.683 564.655, 589.611 564.220, 587.286 564.686 M 487.500 582.777 C 480.313 583.275, 469.629 586.077, 464.712 588.753 C 454.256 594.444, 448.932 604.770, 450.917 615.508 C 453.182 627.763, 466.546 639.757, 485.250 646.323 C 486.749 646.849, 487 648.286, 487 656.346 C 487 666.836, 487.071 666.711, 479.500 669.492 C 476.750 670.502, 467.300 674.985, 458.500 679.454 C 449.700 683.923, 439.125 689.120, 435 691.003 C 426.189 695.026, 423.484 697.176, 420.903 702.210 C 418.179 707.521, 418.466 711.371, 421.868 715.178 C 424.419 718.034, 425.442 718.433, 431.118 718.794 C 438.389 719.256, 438.246 719.314, 478.250 699.536 L 500 688.782 521.750 699.536 C 561.754 719.314, 561.611 719.256, 568.882 718.794 C 574.558 718.433, 575.581 718.034, 578.132 715.178 C 581.534 711.371, 581.821 707.521, 579.097 702.210 C 576.516 697.176, 573.811 695.026, 565 691.003 C 560.875 689.120, 550.300 683.923, 541.500 679.454 C 532.700 674.985, 523.250 670.502, 520.500 669.492 C 512.929 666.711, 513 666.836, 513 656.346 C 513 648.286, 513.251 646.849, 514.750 646.323 C 533.454 639.757, 546.818 627.763, 549.083 615.508 C 551.801 600.807, 541.789 588.705, 523.460 584.537 C 517.017 583.071, 497.230 582.103, 487.500 582.777 M 772.505 634.175 C 769.764 636.331, 769.745 636.426, 770.376 644.925 C 770.932 652.423, 770.762 653.908, 769.021 656.750 C 766.785 660.399, 764.045 660.899, 758.718 658.629 C 753.992 656.615, 751.263 653.135, 750.004 647.516 C 748.641 641.436, 746.593 639, 742.845 639 C 738.421 639, 736 642.139, 736 647.874 C 736 658.346, 740.615 665.917, 750.069 670.956 C 762.919 677.805, 774.965 675.789, 781.736 665.657 C 786.451 658.603, 787.399 654.097, 786.178 644.537 C 785.321 637.823, 784.731 636.166, 782.522 634.266 C 779.211 631.417, 776.047 631.389, 772.505 634.175" stroke="none" fill="#dbbb94" fill-rule="evenodd"/></svg>