<svg xmlns="http://www.w3.org/2000/svg" width="1000" height="1000" viewBox="0 0 1000 1000" version="1.1"><path d="M 353.199 542.744 C 357.984 542.927, 366.084 542.928, 371.199 542.746 C 376.315 542.564, 372.400 542.414, 362.500 542.413 C 352.600 542.412, 348.415 542.561, 353.199 542.744 M 628.199 542.744 C 632.984 542.927, 641.084 542.928, 646.199 542.746 C 651.315 542.564, 647.400 542.414, 637.500 542.413 C 627.600 542.412, 623.415 542.561, 628.199 542.744 M 356.250 565.746 C 362.163 565.923, 371.837 565.923, 377.750 565.746 C 383.663 565.569, 378.825 565.425, 367 565.425 C 355.175 565.425, 350.337 565.569, 356.250 565.746 M 622.250 565.746 C 628.163 565.923, 637.837 565.923, 643.750 565.746 C 649.663 565.569, 644.825 565.425, 633 565.425 C 621.175 565.425, 616.337 565.569, 622.250 565.746 M 400.750 566.737 C 403.637 566.939, 408.363 566.939, 411.250 566.737 C 414.137 566.535, 411.775 566.370, 406 566.370 C 400.225 566.370, 397.863 566.535, 400.750 566.737 M 588.750 566.737 C 591.638 566.939, 596.362 566.939, 599.250 566.737 C 602.138 566.535, 599.775 566.370, 594 566.370 C 588.225 566.370, 585.862 566.535, 588.750 566.737 M 474.487 584.764 C 461.054 589.502, 454.459 597.101, 453.376 609.085 C 452.185 622.275, 460.043 633.405, 477.979 643.933 L 487 649.228 487.193 655.864 L 487.385 662.500 487.740 656.250 C 487.936 652.813, 488.372 650, 488.710 650 C 489.048 650, 491.726 650.757, 494.662 651.683 C 499.664 653.259, 500.336 653.259, 505.338 651.683 C 508.274 650.757, 510.952 650, 511.290 650 C 511.628 650, 512.064 652.813, 512.260 656.250 L 512.615 662.500 512.807 655.864 L 513 649.228 522.021 643.933 C 533.673 637.093, 542.247 628.608, 545.083 621.109 C 548.125 613.063, 547.262 604.576, 542.636 597.039 C 539.705 592.262, 538.173 590.950, 531.496 587.500 L 523.755 583.500 501.627 583.248 C 482.589 583.031, 478.800 583.242, 474.487 584.764 M 396.750 679.723 C 398.538 679.945, 401.462 679.945, 403.250 679.723 C 405.038 679.502, 403.575 679.320, 400 679.320 C 396.425 679.320, 394.962 679.502, 396.750 679.723 M 596.750 679.723 C 598.538 679.945, 601.462 679.945, 603.250 679.723 C 605.038 679.502, 603.575 679.320, 600 679.320 C 596.425 679.320, 594.962 679.502, 596.750 679.723 M 421.750 681.740 C 425.188 681.936, 430.813 681.936, 434.250 681.740 C 437.688 681.545, 434.875 681.385, 428 681.385 C 421.125 681.385, 418.313 681.545, 421.750 681.740 M 565.750 681.740 C 569.188 681.936, 574.813 681.936, 578.250 681.740 C 581.688 681.545, 578.875 681.385, 572 681.385 C 565.125 681.385, 562.313 681.545, 565.750 681.740" stroke="none" fill="#c97183" fill-rule="evenodd"/><path d="M 337.212 544.129 C 330.125 546.173, 327.669 556.293, 332.901 561.894 C 334.497 563.602, 336.409 565.004, 337.151 565.010 C 337.893 565.015, 356.219 565.218, 377.876 565.461 L 417.251 565.902 420.126 563.028 C 423.764 559.390, 424.019 554.278, 420.750 550.536 C 418.145 547.554, 410.642 545.725, 394.144 544.051 C 381.494 542.767, 341.745 542.821, 337.212 544.129 M 604.159 544.138 C 589.542 545.668, 581.756 547.668, 579.250 550.536 C 575.981 554.278, 576.236 559.390, 579.874 563.028 L 582.749 565.902 622.124 565.461 C 643.781 565.218, 662.107 565.015, 662.849 565.010 C 663.591 565.004, 665.503 563.602, 667.099 561.894 C 672.544 556.065, 669.883 546.172, 662.302 544.067 C 657.784 542.812, 616.346 542.863, 604.159 544.138 M 487.994 655.250 C 487.977 671.922, 481.484 676.429, 452.212 680.090 C 435.421 682.190, 431.334 682.216, 403 680.404 C 394.275 679.846, 393.278 679.973, 390.774 681.952 C 386.826 685.073, 385.390 690.603, 387.323 695.232 C 388.170 697.257, 390.095 699.505, 391.671 700.308 C 396.456 702.746, 422.947 705.342, 434.966 704.551 C 449.808 703.575, 468.439 701.193, 475.483 699.372 C 482.497 697.558, 491.984 693.033, 496.187 689.496 C 497.818 688.123, 499.534 687, 500 687 C 500.466 687, 502.182 688.123, 503.813 689.496 C 508.016 693.033, 517.503 697.558, 524.517 699.372 C 531.561 701.193, 550.192 703.575, 565.034 704.551 C 577.053 705.342, 603.544 702.746, 608.329 700.308 C 609.905 699.505, 611.830 697.257, 612.677 695.232 C 614.610 690.603, 613.174 685.073, 609.226 681.952 C 606.722 679.973, 605.725 679.846, 597 680.404 C 568.666 682.216, 564.579 682.190, 547.788 680.090 C 518.516 676.429, 512.023 671.922, 512.006 655.250 C 512.003 652.362, 511.702 650, 511.338 650 C 510.974 650, 508.274 650.757, 505.338 651.683 C 500.336 653.259, 499.664 653.259, 494.662 651.683 C 491.726 650.757, 489.026 650, 488.662 650 C 488.298 650, 487.997 652.362, 487.994 655.250" stroke="none" fill="#4f2607" fill-rule="evenodd"/><path d="M 520.438 165.962 C 516.074 166.972, 508.036 171.528, 502.365 176.207 C 480.996 193.839, 465.259 209.765, 457.112 222 C 453.633 227.225, 450.637 231.660, 450.454 231.856 C 450.271 232.052, 442.331 233.496, 432.811 235.064 C 403.398 239.909, 382.962 245.485, 361.191 254.607 C 344.129 261.755, 343.081 261.679, 332.500 252.539 C 318.636 240.564, 304.907 232.358, 287.478 225.630 C 262.180 215.864, 235.824 213.801, 211 219.645 C 188.883 224.852, 174.035 232.898, 160.329 247.104 C 141.669 266.445, 130.787 289.800, 129.341 313.605 C 128.543 326.756, 130.147 337.407, 135.200 352.500 C 144.672 380.792, 156.885 399.111, 177.282 415.616 L 181.063 418.677 177.871 424.588 C 166.899 444.907, 149.170 487.709, 144.149 506 C 133.933 543.214, 130.656 566.131, 130.701 600.044 L 130.729 620.588 126.492 622.340 C 110.803 628.829, 88.200 650.712, 65.182 681.694 C 60.088 688.551, 49.411 711.218, 44.541 725.515 C 37.005 747.635, 36.172 780.834, 42.503 806.717 C 47.890 828.738, 52.160 839.026, 62.546 855 C 71.811 869.252, 89.765 889.561, 97.417 894.447 C 114.325 905.242, 122.343 908.743, 146.500 915.881 C 168.142 922.275, 177.777 923.956, 197 924.690 C 213.577 925.322, 225.655 924.322, 242.293 920.937 C 247.679 919.841, 256.603 918.514, 262.123 917.988 C 270.697 917.171, 272.617 917.268, 275.291 918.651 C 284.410 923.366, 303.575 928.482, 325.269 931.992 C 338.862 934.191, 391.479 938.656, 417 939.776 C 438.408 940.715, 561.607 940.715, 583 939.775 C 610.923 938.549, 662.749 934.010, 677.688 931.482 C 685.492 930.162, 695.617 928.061, 700.188 926.814 C 708.347 924.588, 709.503 924.546, 763 924.523 C 825.066 924.497, 824.024 924.596, 853.332 915.930 C 888.521 905.525, 900.882 898.819, 916.123 881.865 C 940.893 854.314, 949.821 838.097, 957.497 806.717 C 963.828 780.834, 962.995 747.635, 955.459 725.515 C 950.589 711.218, 939.912 688.551, 934.818 681.694 C 911.800 650.712, 889.197 628.829, 873.508 622.340 L 869.271 620.588 869.299 600.044 C 869.344 566.131, 866.067 543.214, 855.851 506 C 850.830 487.709, 833.101 444.907, 822.129 424.588 L 818.937 418.677 822.718 415.616 C 843.115 399.111, 855.328 380.792, 864.800 352.500 C 869.853 337.407, 871.457 326.756, 870.659 313.605 C 868.629 280.175, 846.591 245.792, 816.817 229.601 C 798.881 219.847, 773.242 214.990, 750.076 216.956 C 720.034 219.506, 691.514 231.796, 667.500 252.539 C 656.919 261.679, 655.871 261.755, 638.809 254.607 C 613.287 243.914, 590.660 238.336, 546 231.727 L 543.500 231.357 546.500 230.047 C 548.150 229.327, 555.026 227.468, 561.779 225.916 C 568.533 224.364, 575.340 222.182, 576.906 221.067 C 583.037 216.701, 584.958 206.172, 580.750 199.990 C 577.310 194.936, 574.043 193.030, 566.919 191.921 C 556.421 190.286, 539.865 194.608, 521.522 203.770 C 513.611 207.721, 514.210 206.267, 523.311 199.425 C 526.630 196.931, 531.147 192.843, 533.349 190.341 C 541.904 180.622, 538.212 168.274, 526 165.768 C 524.625 165.485, 522.122 165.573, 520.438 165.962 M 341 542.853 C 334.878 543.858, 332.551 545.320, 330.630 549.367 C 328.633 553.575, 328.602 555.111, 330.421 559.466 C 333.020 565.686, 333.294 565.724, 377.666 566.131 L 417.832 566.500 420.401 564.090 C 425.710 559.109, 424.237 550.251, 417.642 547.495 C 411.093 544.759, 393.610 542.958, 369.500 542.535 C 356.300 542.304, 343.475 542.447, 341 542.853 M 610.500 542.952 C 598.185 543.905, 586.541 545.798, 582.316 547.534 C 575.764 550.227, 574.304 559.122, 579.599 564.090 L 582.168 566.500 622.334 566.131 C 666.706 565.724, 666.980 565.686, 669.579 559.466 C 671.399 555.109, 671.367 553.575, 669.365 549.357 C 666.474 543.264, 664.018 542.662, 641 542.405 C 629.725 542.280, 616 542.526, 610.500 542.952 M 474.487 584.764 C 461.054 589.502, 454.459 597.101, 453.376 609.085 C 452.185 622.275, 460.043 633.405, 477.979 643.933 L 487 649.228 487 656.146 C 487 664.893, 485.217 669.166, 480.173 672.504 C 475.075 675.878, 468.738 677.469, 452.085 679.554 C 438.878 681.208, 419.236 681.148, 402.248 679.402 C 391.889 678.337, 385.996 682.321, 386.004 690.385 C 386.009 696.203, 388.991 700.654, 393.702 701.875 C 411.779 706.561, 453.432 705.565, 475.500 699.919 C 483.384 697.902, 494.480 692.536, 496.970 689.536 C 497.671 688.691, 499.035 688, 500 688 C 500.965 688, 502.329 688.691, 503.030 689.536 C 505.520 692.536, 516.616 697.902, 524.500 699.919 C 546.568 705.565, 588.221 706.561, 606.298 701.875 C 611.009 700.654, 613.991 696.203, 613.996 690.385 C 614.004 682.321, 608.111 678.337, 597.752 679.402 C 565.407 682.727, 530.621 679.647, 519.827 672.504 C 514.783 669.166, 513 664.893, 513 656.146 L 513 649.228 522.021 643.933 C 533.673 637.093, 542.247 628.608, 545.083 621.109 C 548.125 613.063, 547.262 604.576, 542.636 597.039 C 539.705 592.262, 538.173 590.950, 531.496 587.500 L 523.755 583.500 501.627 583.248 C 482.589 583.031, 478.800 583.242, 474.487 584.764" stroke="none" fill="#dbbb93" fill-rule="evenodd"/></svg>